<svg width="30" height="30" viewBox="0 0 30 30" fill="none" xmlns="http://www.w3.org/2000/svg">
<path opacity="0.4" fill-rule="evenodd" clip-rule="evenodd" d="M7.38818 25.7356C7.38818 24.6856 8.23818 23.8356 9.28818 23.8356C10.3257 23.8356 11.1757 24.6856 11.1757 25.7356C11.1757 26.7731 10.3257 27.6231 9.28818 27.6231C8.23818 27.6231 7.38818 26.7731 7.38818 25.7356ZM21.4507 25.7356C21.4507 24.6856 22.3007 23.8356 23.3507 23.8356C24.3882 23.8356 25.2382 24.6856 25.2382 25.7356C25.2382 26.7731 24.3882 27.6231 23.3507 27.6231C22.3007 27.6231 21.4507 26.7731 21.4507 25.7356Z" fill="white"/>
<path fill-rule="evenodd" clip-rule="evenodd" d="M25.2384 7.93625C26.0009 7.93625 26.5009 8.19875 27.0009 8.77375C27.5009 9.34875 27.5884 10.1738 27.4759 10.9225L26.2884 19.1225C26.0634 20.6987 24.7134 21.86 23.1259 21.86H9.48843C7.82593 21.86 6.45093 20.585 6.31343 18.9362L5.16343 5.31L3.27593 4.985C2.77593 4.8975 2.42593 4.41 2.51343 3.91C2.60093 3.3975 3.08843 3.06 3.60093 3.135L6.58218 3.585C7.00718 3.66125 7.31968 4.01 7.35718 4.435L7.59468 7.235C7.63218 7.63625 7.95718 7.93625 8.35718 7.93625H25.2384ZM17.6635 14.435H21.126C21.651 14.435 22.0635 14.01 22.0635 13.4975C22.0635 12.9725 21.651 12.56 21.126 12.56H17.6635C17.1385 12.56 16.726 12.9725 16.726 13.4975C16.726 14.01 17.1385 14.435 17.6635 14.435Z" fill="white"/>
</svg>
