<svg width="55" height="63" viewBox="0 0 55 63" fill="none" xmlns="http://www.w3.org/2000/svg">
    <path opacity="0.4" d="M27.7703 62.75C27.3833 62.75 26.9964 62.6611 26.6472 62.4803L15.3937 56.655C12.2005 55.0003 9.70252 53.1433 7.75197 50.9799C3.48277 46.2485 1.10751 40.175 1.06975 33.8747L0.937619 13.1383C0.921889 10.7451 2.4666 8.59696 4.7758 7.78798L25.4391 0.583713C26.666 0.145512 28.0346 0.139383 29.2835 0.562263L50.0255 7.52138C52.3472 8.29666 53.9171 10.4294 53.9297 12.8196L54.0618 33.5713C54.1027 39.8624 51.8093 45.9605 47.6061 50.7439C45.6776 52.938 43.2017 54.8226 40.0399 56.5079L28.8871 62.465C28.5411 62.6519 28.1573 62.7469 27.7703 62.75Z" fill="#8CF5DD"/>
    <path d="M25.3722 38.7529C24.7682 38.7559 24.1641 38.5383 23.6985 38.091L17.7084 32.33C16.7835 31.4352 16.7741 29.9827 17.6896 29.0818C18.6051 28.1778 20.0994 28.1686 21.0275 29.0603L25.3376 33.2033L35.8612 22.8275C36.7798 21.9235 38.2742 21.9143 39.1991 22.806C40.1272 23.7008 40.1366 25.1564 39.2211 26.0542L27.0365 38.0695C26.5772 38.523 25.9763 38.7498 25.3722 38.7529Z" fill="#200E32"/>
</svg>
