<svg width="30" height="30" viewBox="0 0 30 30" fill="none" xmlns="http://www.w3.org/2000/svg">
<path d="M1.33333 5C0.611961 5 0 5.61197 0 6.33333V23C0 23.7214 0.611961 24.3334 1.33333 24.3334H28.6667C29.388 24.3334 30 23.7214 30 23V6.33333C30 5.61197 29.388 5 28.6667 5H1.33333ZM3.61458 7H26.3854L15 17L3.61458 7ZM2 8.25L9.23958 14.5937L2 21.0625V8.25ZM28 8.25V21.0625L20.7604 14.5937L28 8.25ZM10.75 15.9271L14.3438 19.0833C14.5258 19.2416 14.7588 19.3288 15 19.3288C15.2412 19.3288 15.4743 19.2416 15.6562 19.0833L19.25 15.9271L26.4271 22.3334H3.57292L10.75 15.9271Z" fill="#FFFDFB"/>
</svg>
