<svg width="30" height="30" viewBox="0 0 30 30" fill="none" xmlns="http://www.w3.org/2000/svg">
<path d="M29.5087 13.8239L26.1803 10.491L16.1952 0.492016C16.0414 0.336154 15.8583 0.212407 15.6564 0.127949C15.4546 0.0434899 15.238 0 15.0192 0C14.8004 0 14.5838 0.0434899 14.3819 0.127949C14.18 0.212407 13.9969 0.336154 13.8431 0.492016L3.85804 10.491L0.529673 13.8239C0.366168 13.9765 0.235025 14.1605 0.144068 14.3649C0.0531103 14.5693 0.00420152 14.79 0.000258994 15.0138C-0.00368353 15.2375 0.037421 15.4598 0.121121 15.6673C0.20482 15.8748 0.3294 16.0633 0.487428 16.2215C0.645456 16.3798 0.833695 16.5045 1.04092 16.5884C1.24814 16.6722 1.47009 16.7133 1.69354 16.7094C1.91699 16.7054 2.13736 16.6565 2.3415 16.5654C2.54564 16.4743 2.72936 16.343 2.88172 16.1792L3.36988 15.6904V28.3335C3.36988 28.7755 3.54521 29.1994 3.85731 29.5119C4.1694 29.8244 4.5927 30 5.03406 30H25.0043C25.4456 30 25.8689 29.8244 26.181 29.5119C26.4931 29.1994 26.6685 28.7755 26.6685 28.3335V15.6904L27.1566 16.1792C27.4687 16.4913 27.8916 16.6666 28.3326 16.6666C28.7737 16.6666 29.1966 16.4913 29.5087 16.1792C29.6643 16.0253 29.7879 15.8419 29.8722 15.6397C29.9566 15.4376 30 15.2207 30 15.0016C30 14.7825 29.9566 14.5656 29.8722 14.3634C29.7879 14.1613 29.6643 13.9779 29.5087 13.8239ZM23.3401 26.667H6.69825V12.3574L15.0192 4.02497L23.3401 12.3574V26.667Z" fill="#FFFDFB"/>
</svg>
