<svg width="54" height="55" viewBox="0 0 54 55" fill="none" xmlns="http://www.w3.org/2000/svg">
<path d="M45.99 0H8.01C5.88744 0.00598124 3.85351 0.858061 2.35263 2.37006C0.851752 3.88206 0.00593726 5.93105 0 8.06933L0 46.3307C0.00593726 48.4689 0.851752 50.5179 2.35263 52.0299C3.85351 53.5419 5.88744 54.394 8.01 54.4H45.99C48.1126 54.394 50.1465 53.5419 51.6474 52.0299C53.1483 50.5179 53.9941 48.4689 54 46.3307V8.06933C53.9941 5.93105 53.1483 3.88206 51.6474 2.37006C50.1465 0.858061 48.1126 0.00598124 45.99 0V0ZM49.5 46.3307C49.5 47.2685 49.1302 48.1679 48.4719 48.831C47.8137 49.4941 46.9209 49.8667 45.99 49.8667H8.01C7.07909 49.8667 6.18631 49.4941 5.52806 48.831C4.8698 48.1679 4.5 47.2685 4.5 46.3307V8.06933C4.5 7.13153 4.8698 6.23213 5.52806 5.569C6.18631 4.90588 7.07909 4.53333 8.01 4.53333H45.99C46.9209 4.53333 47.8137 4.90588 48.4719 5.569C49.1302 6.23213 49.5 7.13153 49.5 8.06933V46.3307Z" fill="white"/>
<path d="M27 13.6C24.33 13.6 21.7199 14.3976 19.4998 15.892C17.2797 17.3864 15.5494 19.5104 14.5276 21.9955C13.5058 24.4806 13.2385 27.2151 13.7594 29.8532C14.2803 32.4913 15.5661 34.9146 17.4541 36.8166C19.3421 38.7186 21.7475 40.0139 24.3663 40.5387C26.985 41.0634 29.6994 40.7941 32.1662 39.7647C34.633 38.7354 36.7414 36.9922 38.2248 34.7557C39.7082 32.5192 40.5 29.8898 40.5 27.2C40.5 23.593 39.0777 20.1338 36.5459 17.5833C34.0142 15.0328 30.5804 13.6 27 13.6ZM27 36.2666C25.22 36.2666 23.4799 35.7349 21.9999 34.7386C20.5198 33.7424 19.3663 32.3264 18.6851 30.6696C18.0039 29.0129 17.8257 27.1899 18.1729 25.4312C18.5202 23.6724 19.3774 22.0569 20.636 20.7889C21.8947 19.5209 23.4984 18.6574 25.2442 18.3075C26.99 17.9577 28.7996 18.1372 30.4442 18.8235C32.0887 19.5097 33.4943 20.6718 34.4832 22.1628C35.4722 23.6538 36 25.4068 36 27.2C36 29.6046 35.0518 31.9107 33.364 33.6111C31.6761 35.3114 29.387 36.2666 27 36.2666Z" fill="white"/>
<path d="M41.625 15.8666C43.489 15.8666 45 14.3444 45 12.4667C45 10.5889 43.489 9.06665 41.625 9.06665C39.761 9.06665 38.25 10.5889 38.25 12.4667C38.25 14.3444 39.761 15.8666 41.625 15.8666Z" fill="white"/>
</svg>
