<svg width="30" height="30" viewBox="0 0 30 30" fill="none" xmlns="http://www.w3.org/2000/svg">
<path d="M28.8762 21.1531L25.2618 17.5484C24.548 16.8099 23.6854 16.4225 22.7712 16.4225C21.863 16.4225 20.9943 16.8099 20.2593 17.5393L18.3761 19.4159C18.282 19.3674 18.1909 19.322 18.1058 19.2797C17.8841 19.1707 17.6715 19.0617 17.4893 18.9467C15.5788 17.7391 13.8384 16.1562 12.1648 14.1132C11.4268 13.184 10.9165 12.4031 10.5459 11.6344C11.0228 11.1895 11.4723 10.7355 11.8975 10.2996C12.0767 10.118 12.2651 9.93039 12.4473 9.74879C13.2006 8.99818 13.5984 8.12349 13.5984 7.22155C13.5984 6.31356 13.2006 5.43886 12.4473 4.69431L10.6522 2.90557C10.4487 2.70278 10.2543 2.50605 10.0539 2.29722L10.0448 2.28814C9.65296 1.88559 9.23077 1.45884 8.80858 1.0684C8.09178 0.369249 7.23525 0 6.33013 0C5.43108 0 4.56544 0.372276 3.82737 1.07446L1.56457 3.3293C0.650335 4.23124 0.13399 5.33293 0.0276839 6.60412C-0.093809 8.11743 0.182587 9.7155 0.896358 11.6253C1.97157 14.5369 3.59046 17.2306 5.98995 20.1029C8.89667 23.5654 12.4078 26.3045 16.4201 28.2446L16.4231 28.2476C17.9752 28.98 20.0527 29.8396 22.352 29.9879H22.3793C22.513 29.9939 22.6497 30 22.7955 30C24.4447 30 25.7751 29.431 26.8594 28.2597C26.8776 28.2385 26.9019 28.2143 26.9262 28.181C27.2299 27.8208 27.5762 27.4818 27.9468 27.1277L28.0318 27.046C28.3781 26.7161 28.6514 26.4437 28.8944 26.1925C29.6203 25.4389 30.003 24.5642 30 23.6592C30 22.7512 29.6112 21.8856 28.8762 21.1531ZM2.53347 6.81598C2.59422 6.12894 2.85239 5.58111 3.3414 5.09383L5.57991 2.8632C5.82593 2.62712 6.08411 2.5 6.32405 2.5C6.61564 2.5 6.87381 2.69976 7.03782 2.86622L7.05605 2.88438C7.39623 3.19915 7.72426 3.53208 8.07051 3.88317L8.22845 4.04358C8.33172 4.14952 8.43803 4.25545 8.54434 4.36441C8.6476 4.46731 8.75087 4.57325 8.85414 4.67918L10.6553 6.47397C10.8436 6.66162 11.0684 6.94613 11.0684 7.23063C11.0684 7.51513 10.8436 7.79964 10.6553 7.98729C10.5611 8.08111 10.467 8.17494 10.3728 8.27179C10.2817 8.36562 10.1875 8.45944 10.0934 8.55327L9.9658 8.68039C9.45857 9.19189 8.97564 9.67615 8.45625 10.1392L8.40462 10.1907C7.61795 10.9746 7.88828 11.7857 7.97636 12.0521C7.98243 12.0732 7.98851 12.0884 7.99458 12.1065L8.00673 12.1368C8.49878 13.3111 9.17306 14.4068 10.1936 15.687L10.1966 15.6901C12.0342 17.9479 13.972 19.7064 16.1255 21.0714C16.3624 21.2258 16.6024 21.3469 16.8362 21.4619C16.8787 21.4831 16.9243 21.5042 16.9668 21.5285L16.9699 21.5315C17.1916 21.6404 17.4042 21.7494 17.5864 21.8644L17.6411 21.8947C17.6593 21.9038 17.6776 21.9159 17.6958 21.9249C17.9631 22.0611 18.2395 22.1307 18.5159 22.1307C18.9836 22.1307 19.4088 21.9431 19.7794 21.5708L22.0331 19.3251C22.2092 19.1495 22.4765 18.9437 22.7681 18.9437C23.0658 18.9437 23.3239 19.1737 23.4546 19.313L23.4606 19.319L27.0993 22.9389C27.6218 23.4594 27.6126 23.9195 27.075 24.4764L27.069 24.4824C26.8138 24.7548 26.5435 25.0151 26.2884 25.2603L26.2155 25.3299C25.8085 25.7234 25.3893 26.1289 24.9975 26.595C24.4022 27.2306 23.7249 27.5121 22.8015 27.5121C22.7165 27.5121 22.6193 27.5061 22.5221 27.5C20.6359 27.3789 18.8591 26.6374 17.5196 26.0018C13.8323 24.2222 10.6036 21.704 7.92776 18.5139C5.71963 15.8656 4.23741 13.405 3.25636 10.7688C2.67623 9.21308 2.44236 7.954 2.53347 6.81598Z" fill="#FFFDFB"/>
</svg>
