<svg width="64" height="63" viewBox="0 0 64 63" fill="none" xmlns="http://www.w3.org/2000/svg">
    <path d="M61.8532 2.05718C60.2698 0.460308 57.9265 -0.130317 55.7415 0.494683L4.78984 15.0228C2.48451 15.6541 0.850505 17.4572 0.410338 19.7447C-0.0393284 22.0759 1.53134 25.0384 3.58334 26.2759L19.5148 35.8759C21.1488 36.8634 23.2578 36.6166 24.61 35.2791L42.8532 17.2759C43.7715 16.3353 45.2915 16.3353 46.2098 17.2759C47.1282 18.1791 47.1282 19.6509 46.2098 20.5884L27.935 38.5916C26.5797 39.9291 26.3263 42.0041 27.3238 43.6197L37.0582 59.4009C38.1982 61.2728 40.1615 62.3384 42.3148 62.3384C42.5682 62.3384 42.8532 62.3384 43.1065 62.3041C45.5765 61.9947 47.5398 60.3353 48.2682 57.9916L63.3732 8.08843C64.0382 5.96343 63.4365 3.65093 61.8532 2.05718Z" fill="#F36A5F"/>
    <path opacity="0.4" fill-rule="evenodd" clip-rule="evenodd" d="M3.53339 46.5244C2.92539 46.5244 2.31739 46.2963 1.85505 45.8369C0.927221 44.9213 0.927221 43.44 1.85505 42.5244L6.17756 38.2557C7.10539 37.3432 8.60956 37.3432 9.53739 38.2557C10.4621 39.1713 10.4621 40.6557 9.53739 41.5713L5.21172 45.8369C4.74939 46.2963 4.14139 46.5244 3.53339 46.5244ZM15.4439 50.2506C14.8359 50.2506 14.2279 50.0225 13.7656 49.5631C12.8378 48.6475 12.8378 47.1663 13.7656 46.2506L18.0881 41.9819C19.0159 41.0694 20.5201 41.0694 21.4479 41.9819C22.3726 42.8975 22.3726 44.3819 21.4479 45.2975L17.1223 49.5631C16.6599 50.0225 16.0519 50.2506 15.4439 50.2506ZM16.2473 61.4008C16.7096 61.8602 17.3176 62.0883 17.9256 62.0883C18.5336 62.0883 19.1416 61.8602 19.604 61.4008L23.9296 57.1352C24.8543 56.2196 24.8543 54.7352 23.9296 53.8196C23.0018 52.9071 21.4976 52.9071 20.5698 53.8196L16.2473 58.0883C15.3195 59.0039 15.3195 60.4852 16.2473 61.4008Z" fill="#F36A5F"/>
</svg>
